# xmcd
#
# Track frame offsets:
#	150
#	19665
#	36428
#	57897
#	75975
#	91201
#	110572
#	127051
#	141858
#	167091
#	183233
#	197836
#
# Disc length: 2903 seconds
# Revision: 0
# Processed by: cddbd v1.5.2PL0 Copyright (c) Steve Scherf et al.
# Submitted via: dBpowerAMP V12.0
#
DISCID=9e0b550c
DTITLE=Mike Mattison - You Can't Fight Love
DYEAR=2014
DGENRE=Blues
TTITLE0=You Can't Fight Love
TTITLE1=Gin House Blues
TTITLE2=Midnight in Harlem
TTITLE3=Gimme Your Love
TTITLE4=Everybody's Happy Nowadays
TTITLE5=That Makes Two Of Us
TTITLE6=Piece Of Clay
TTITLE7=No Matter Where You Been
TTITLE8=Good Luck Automated Car Crash
TTITLE9=Life Is Crazy
TTITLE10=Going Home
TTITLE11=Please Let Me Hold You
EXTD=
EXTT0=
EXTT1=
EXTT2=
EXTT3=
EXTT4=
EXTT5=
EXTT6=
EXTT7=
EXTT8=
EXTT9=
EXTT10=
EXTT11=
PLAYORDER=
